<svg xmlns="http://www.w3.org/2000/svg" viewBox="0 0 440 44" fill="none">
  <rect width="440" height="44" fill="#1c1c1e"/>
  <rect x="0.5" y="0.5" width="439" height="43" stroke="#3a3a3c" stroke-width="1"/>

  <g transform="translate(2, 5)">
    <rect width="220" height="32" rx="1" fill="#141416" stroke="#333" stroke-width="0.75"/>
    <g fill="#0e0e10" stroke="#2a2a2c" stroke-width="0.5">
      <rect x="4" y="4" width="22" height="24" rx="1"/>
      <rect x="29" y="4" width="22" height="24" rx="1"/>
      <rect x="54" y="4" width="22" height="24" rx="1"/>
      <rect x="79" y="4" width="22" height="24" rx="1"/>
      <rect x="104" y="4" width="22" height="24" rx="1"/>
      <rect x="129" y="4" width="22" height="24" rx="1"/>
      <rect x="154" y="4" width="22" height="24" rx="1"/>
      <rect x="179" y="4" width="37" height="24" rx="1"/>
    </g>
    <g fill="#1bdb7a">
      <circle cx="15" cy="30" r="1.2"/><circle cx="40" cy="30" r="1.2"/>
      <circle cx="65" cy="30" r="1.2"/><circle cx="90" cy="30" r="1.2"/>
    </g>
  </g>

  <rect x="226" y="5" width="88" height="32" rx="1" fill="#18181a" stroke="#2e2e30" stroke-width="0.75"/>
  <text x="270" y="25" text-anchor="middle" fill="#0076ce" font-family="Arial,Helvetica,sans-serif" font-size="11" font-weight="bold" letter-spacing="2">DELL</text>
  <text x="270" y="33" text-anchor="middle" fill="#666" font-family="Arial,sans-serif" font-size="5" letter-spacing="0.5">PowerEdge R630</text>

  <g fill="#252528" stroke="#333" stroke-width="0.3">
    <rect x="320" y="9" width="3" height="24" rx="0.5"/>
    <rect x="326" y="9" width="3" height="24" rx="0.5"/>
    <rect x="332" y="9" width="3" height="24" rx="0.5"/>
    <rect x="338" y="9" width="3" height="24" rx="0.5"/>
    <rect x="344" y="9" width="3" height="24" rx="0.5"/>
    <rect x="350" y="9" width="3" height="24" rx="0.5"/>
  </g>

  <rect x="360" y="5" width="76" height="32" rx="1" fill="#111" stroke="#333" stroke-width="0.75"/>
  <rect x="364" y="9" width="68" height="10" rx="1" fill="#0a2a14" stroke="#1a4a2a" stroke-width="0.5"/>
  <text x="398" y="17" text-anchor="middle" fill="#1bdb7a" font-family="monospace" font-size="6">READY</text>
  <circle cx="374" cy="29" r="4" fill="#222" stroke="#444" stroke-width="0.75"/>
  <circle cx="374" cy="29" r="2" fill="#1bdb7a"/>
  <circle cx="398" cy="29" r="3.5" fill="#222" stroke="#555" stroke-width="0.75"/>
  <text x="398" y="30.5" text-anchor="middle" fill="#888" font-family="Arial" font-size="4">i</text>
  <circle cx="422" cy="29" r="3.5" fill="#222" stroke="#555" stroke-width="0.75"/>
  <rect x="420" y="27.5" width="4" height="3" rx="0.5" fill="#555"/>
</svg>