<svg xmlns="http://www.w3.org/2000/svg" viewBox="0 0 440 44" fill="none">
  <defs>
    <linearGradient id="chassis" x1="0" y1="0" x2="0" y2="44" gradientUnits="userSpaceOnUse">
      <stop offset="0%" stop-color="#2a2a2e"/>
      <stop offset="50%" stop-color="#161618"/>
      <stop offset="100%" stop-color="#2a2a2e"/>
    </linearGradient>
    <linearGradient id="blueBar" x1="0" y1="0" x2="1" y2="0">
      <stop offset="0%" stop-color="#1d4ed8"/>
      <stop offset="50%" stop-color="#0076ce"/>
      <stop offset="100%" stop-color="#3b9eff"/>
    </linearGradient>
    <linearGradient id="lcdBg" x1="0" y1="0" x2="0" y2="1">
      <stop offset="0%" stop-color="#081018"/>
      <stop offset="100%" stop-color="#040810"/>
    </linearGradient>
  </defs>

  <rect width="440" height="44" fill="url(#chassis)"/>
  <rect x="0.5" y="0.5" width="439" height="43" stroke="#3a3a40" stroke-width="1"/>

  <rect x="2" y="2" width="436" height="3" rx="1" fill="url(#blueBar)"/>
  <rect x="2" y="2" width="436" height="1.5" rx="1" fill="#fff" opacity="0.1"/>

  <rect x="6" y="7" width="428" height="34" rx="1.5" fill="#101014" stroke="#2a2a30" stroke-width="0.75"/>

  <!-- Drive bays 1-8 -->
  <g transform="translate(12, 9)">
    <text x="0" y="0" fill="#64748b" font-family="Arial" font-size="3.5">BAY 1–8</text>
    <g transform="translate(0, 4)">
      <g transform="translate(0,0)"><rect width="26" height="24" rx="1" fill="#0e0e12" stroke="#2a2a30" stroke-width="0.5"/><rect x="2" y="2" width="22" height="16" rx="0.5" fill="#08080a" stroke="#333" stroke-width="0.4"/><rect x="4" y="4" width="18" height="2" rx="0.3" fill="#1a1a1e"/><rect x="5" y="8" width="16" height="8" rx="0.3" fill="#121214" stroke="#2a2a28" stroke-width="0.3"/><circle cx="20" cy="4" r="1.1" fill="#1bdb7a"/><text x="13" y="22" text-anchor="middle" fill="#5a5a64" font-family="Arial" font-size="2.8">1</text></g>
      <g transform="translate(28,0)"><rect width="26" height="24" rx="1" fill="#0e0e12" stroke="#2a2a30" stroke-width="0.5"/><rect x="2" y="2" width="22" height="16" rx="0.5" fill="#08080a" stroke="#333" stroke-width="0.4"/><rect x="4" y="4" width="18" height="2" rx="0.3" fill="#1a1a1e"/><rect x="5" y="8" width="16" height="8" rx="0.3" fill="#121214"/><circle cx="20" cy="4" r="1.1" fill="#1bdb7a"/><text x="13" y="22" text-anchor="middle" fill="#5a5a64" font-family="Arial" font-size="2.8">2</text></g>
      <g transform="translate(56,0)"><rect width="26" height="24" rx="1" fill="#0e0e12" stroke="#2a2a30" stroke-width="0.5"/><rect x="2" y="2" width="22" height="16" rx="0.5" fill="#08080a" stroke="#333" stroke-width="0.4"/><rect x="4" y="4" width="18" height="2" rx="0.3" fill="#1a1a1e"/><rect x="5" y="8" width="16" height="8" rx="0.3" fill="#121214"/><circle cx="20" cy="4" r="1.1" fill="#1bdb7a"/><text x="13" y="22" text-anchor="middle" fill="#5a5a64" font-family="Arial" font-size="2.8">3</text></g>
      <g transform="translate(84,0)"><rect width="26" height="24" rx="1" fill="#0e0e12" stroke="#2a2a30" stroke-width="0.5"/><rect x="2" y="2" width="22" height="16" rx="0.5" fill="#08080a" stroke="#333" stroke-width="0.4"/><rect x="4" y="4" width="18" height="2" rx="0.3" fill="#1a1a1e"/><rect x="5" y="8" width="16" height="8" rx="0.3" fill="#121214"/><circle cx="20" cy="4" r="1.1" fill="#334155"/><text x="13" y="22" text-anchor="middle" fill="#5a5a64" font-family="Arial" font-size="2.8">4</text></g>
      <g transform="translate(112,0)"><rect width="26" height="24" rx="1" fill="#0e0e12" stroke="#2a2a30" stroke-width="0.5"/><rect x="2" y="2" width="22" height="16" rx="0.5" fill="#08080a" stroke="#333" stroke-width="0.4"/><rect x="4" y="4" width="18" height="2" rx="0.3" fill="#1a1a1e"/><rect x="5" y="8" width="16" height="8" rx="0.3" fill="#121214"/><circle cx="20" cy="4" r="1.1" fill="#1bdb7a"/><text x="13" y="22" text-anchor="middle" fill="#5a5a64" font-family="Arial" font-size="2.8">5</text></g>
      <g transform="translate(140,0)"><rect width="26" height="24" rx="1" fill="#0e0e12" stroke="#2a2a30" stroke-width="0.5"/><rect x="2" y="2" width="22" height="16" rx="0.5" fill="#08080a" stroke="#333" stroke-width="0.4"/><rect x="4" y="4" width="18" height="2" rx="0.3" fill="#1a1a1e"/><rect x="5" y="8" width="16" height="8" rx="0.3" fill="#121214"/><circle cx="20" cy="4" r="1.1" fill="#1bdb7a"/><text x="13" y="22" text-anchor="middle" fill="#5a5a64" font-family="Arial" font-size="2.8">6</text></g>
      <g transform="translate(168,0)"><rect width="26" height="24" rx="1" fill="#0e0e12" stroke="#2a2a30" stroke-width="0.5"/><rect x="2" y="2" width="22" height="16" rx="0.5" fill="#08080a" stroke="#333" stroke-width="0.4"/><rect x="4" y="4" width="18" height="2" rx="0.3" fill="#1a1a1e"/><rect x="5" y="8" width="16" height="8" rx="0.3" fill="#121214"/><circle cx="20" cy="4" r="1.1" fill="#1bdb7a"/><text x="13" y="22" text-anchor="middle" fill="#5a5a64" font-family="Arial" font-size="2.8">7</text></g>
      <g transform="translate(196,0)"><rect width="26" height="24" rx="1" fill="#0e0e12" stroke="#2a2a30" stroke-width="0.5"/><rect x="2" y="2" width="22" height="16" rx="0.5" fill="#08080a" stroke="#333" stroke-width="0.4"/><rect x="4" y="4" width="18" height="2" rx="0.3" fill="#1a1a1e"/><rect x="5" y="8" width="16" height="8" rx="0.3" fill="#121214"/><circle cx="20" cy="4" r="1.1" fill="#1bdb7a"/><text x="13" y="22" text-anchor="middle" fill="#5a5a64" font-family="Arial" font-size="2.8">8</text></g>
    </g>
  </g>

  <!-- Vent slats -->
  <g transform="translate(232, 11)">
    <g fill="#252528" stroke="#333" stroke-width="0.3">
      <rect x="0" y="0" width="3" height="22" rx="0.5"/>
      <rect x="6" y="0" width="3" height="22" rx="0.5"/>
      <rect x="12" y="0" width="3" height="22" rx="0.5"/>
      <rect x="18" y="0" width="3" height="22" rx="0.5"/>
      <rect x="24" y="0" width="3" height="22" rx="0.5"/>
      <rect x="30" y="0" width="3" height="22" rx="0.5"/>
    </g>
  </g>

  <!-- iDRAC LCD -->
  <g transform="translate(272, 11)">
    <rect width="86" height="26" rx="1" fill="#0a0a0c" stroke="#2a2a30" stroke-width="0.75"/>
    <rect x="2" y="2" width="82" height="14" rx="0.5" fill="url(#lcdBg)" stroke="#1a3060" stroke-width="0.5"/>
    <text x="6" y="12" fill="#1bdb7a" font-family="JetBrains Mono, monospace" font-size="6" font-weight="600">READY</text>
    <text x="6" y="22" fill="#64748b" font-family="JetBrains Mono, monospace" font-size="4.5">iDRAC · 10.0.40.10</text>
  </g>

  <!-- Brand -->
  <g transform="translate(364, 13)">
    <text x="0" y="9" fill="#0076ce" font-family="Arial, Helvetica, sans-serif" font-size="9" font-weight="bold" letter-spacing="1">RACK</text>
    <text x="0" y="20" fill="#e2e8f0" font-family="Arial, Helvetica, sans-serif" font-size="8" font-weight="600" letter-spacing="2">SERVER</text>
    <text x="0" y="28" fill="#64748b" font-family="Arial, sans-serif" font-size="4">1U · 8-Bay</text>
  </g>

  <!-- Power + iDRAC -->
  <g transform="translate(408, 11)">
    <circle cx="8" cy="10" r="5" fill="#1a1a1e" stroke="#444" stroke-width="0.6"/>
    <circle cx="8" cy="10" r="3.5" fill="#222" stroke="#0076ce" stroke-width="0.6"/>
    <path d="M8 7.5v3.5M6.2 9.2a2.2 2.2 0 0 1 3.6 0" stroke="#0076ce" stroke-width="0.7" stroke-linecap="round"/>
    <circle cx="22" cy="6" r="2.5" fill="#0a1a10" stroke="#1a3a28" stroke-width="0.5"/>
    <circle cx="22" cy="6" r="1.5" fill="#1bdb7a"/>
    <text x="22" y="14" text-anchor="middle" fill="#64748b" font-family="Arial" font-size="3">PWR</text>
    <circle cx="22" cy="20" r="2.5" fill="#081018" stroke="#1a3060" stroke-width="0.5"/>
    <circle cx="22" cy="20" r="1.5" fill="#0076ce"/>
    <text x="22" y="28" text-anchor="middle" fill="#64748b" font-family="Arial" font-size="3">iDR</text>
  </g>

  <rect x="6" y="7" width="428" height="1" fill="#fff" opacity="0.04"/>
</svg>