<svg xmlns="http://www.w3.org/2000/svg" viewBox="0 0 440 44" fill="none">
  <defs>
    <linearGradient id="chassis" x1="0" y1="0" x2="0" y2="44" gradientUnits="userSpaceOnUse">
      <stop offset="0%" stop-color="#222228"/>
      <stop offset="50%" stop-color="#141418"/>
      <stop offset="100%" stop-color="#222228"/>
    </linearGradient>
    <linearGradient id="cyanBar" x1="0" y1="0" x2="1" y2="0">
      <stop offset="0%" stop-color="#0891b2"/>
      <stop offset="50%" stop-color="#3b9eff"/>
      <stop offset="100%" stop-color="#67c3ff"/>
    </linearGradient>
    <linearGradient id="lcdBg" x1="0" y1="0" x2="0" y2="1">
      <stop offset="0%" stop-color="#081018"/>
      <stop offset="100%" stop-color="#040810"/>
    </linearGradient>
  </defs>

  <rect width="440" height="44" fill="url(#chassis)"/>
  <rect x="0.5" y="0.5" width="439" height="43" stroke="#3a3a44" stroke-width="1"/>
  <rect x="2" y="2" width="436" height="3" rx="1" fill="url(#cyanBar)"/>
  <rect x="2" y="2" width="436" height="1.5" rx="1" fill="#fff" opacity="0.1"/>
  <rect x="6" y="7" width="428" height="34" rx="1.5" fill="#0c0c10" stroke="#2a2a34" stroke-width="0.75"/>

  <g transform="translate(10, 11)">
    <rect width="48" height="26" rx="1" fill="#060810" stroke="#2a3a48" stroke-width="0.75"/>
    <rect x="2" y="2" width="44" height="22" rx="0.5" fill="url(#lcdBg)" stroke="#1a4060" stroke-width="0.5"/>
    <text x="5" y="10" fill="#3b9eff" font-family="JetBrains Mono, monospace" font-size="5.5" font-weight="600">48p</text>
    <text x="5" y="19" fill="#1bdb7a" font-family="JetBrains Mono, monospace" font-size="4.5">L2/L3</text>
  </g>

  <g transform="translate(68, 9)">
    <text x="0" y="0" fill="#64748b" font-family="Arial, sans-serif" font-size="3">1–24</text>
    <text x="174" y="0" fill="#64748b" font-family="Arial, sans-serif" font-size="3">25–48</text>
    <g transform="translate(0, 4)" fill="#14141c" stroke="#3a3a48" stroke-width="0.35">
      <rect x="0" y="0" width="10" height="8" rx="0.5"/><rect x="14.5" y="0" width="10" height="8" rx="0.5"/>
      <rect x="29" y="0" width="10" height="8" rx="0.5"/><rect x="43.5" y="0" width="10" height="8" rx="0.5"/>
      <rect x="58" y="0" width="10" height="8" rx="0.5"/><rect x="72.5" y="0" width="10" height="8" rx="0.5"/>
      <rect x="87" y="0" width="10" height="8" rx="0.5"/><rect x="101.5" y="0" width="10" height="8" rx="0.5"/>
      <rect x="116" y="0" width="10" height="8" rx="0.5"/><rect x="130.5" y="0" width="10" height="8" rx="0.5"/>
      <rect x="145" y="0" width="10" height="8" rx="0.5"/><rect x="159.5" y="0" width="10" height="8" rx="0.5"/>
      <rect x="174" y="0" width="10" height="8" rx="0.5"/><rect x="188.5" y="0" width="10" height="8" rx="0.5"/>
      <rect x="203" y="0" width="10" height="8" rx="0.5"/><rect x="217.5" y="0" width="10" height="8" rx="0.5"/>
      <rect x="232" y="0" width="10" height="8" rx="0.5"/><rect x="246.5" y="0" width="10" height="8" rx="0.5"/>
      <rect x="261" y="0" width="10" height="8" rx="0.5"/><rect x="275.5" y="0" width="10" height="8" rx="0.5"/>
      <rect x="290" y="0" width="10" height="8" rx="0.5"/><rect x="304.5" y="0" width="10" height="8" rx="0.5"/>
      <rect x="319" y="0" width="10" height="8" rx="0.5"/><rect x="333.5" y="0" width="10" height="8" rx="0.5"/>
      <rect x="0" y="11" width="10" height="8" rx="0.5"/><rect x="14.5" y="11" width="10" height="8" rx="0.5"/>
      <rect x="29" y="11" width="10" height="8" rx="0.5"/><rect x="43.5" y="11" width="10" height="8" rx="0.5"/>
      <rect x="58" y="11" width="10" height="8" rx="0.5"/><rect x="72.5" y="11" width="10" height="8" rx="0.5"/>
      <rect x="87" y="11" width="10" height="8" rx="0.5"/><rect x="101.5" y="11" width="10" height="8" rx="0.5"/>
      <rect x="116" y="11" width="10" height="8" rx="0.5"/><rect x="130.5" y="11" width="10" height="8" rx="0.5"/>
      <rect x="145" y="11" width="10" height="8" rx="0.5"/><rect x="159.5" y="11" width="10" height="8" rx="0.5"/>
      <rect x="174" y="11" width="10" height="8" rx="0.5"/><rect x="188.5" y="11" width="10" height="8" rx="0.5"/>
      <rect x="203" y="11" width="10" height="8" rx="0.5"/><rect x="217.5" y="11" width="10" height="8" rx="0.5"/>
      <rect x="232" y="11" width="10" height="8" rx="0.5"/><rect x="246.5" y="11" width="10" height="8" rx="0.5"/>
      <rect x="261" y="11" width="10" height="8" rx="0.5"/><rect x="275.5" y="11" width="10" height="8" rx="0.5"/>
      <rect x="290" y="11" width="10" height="8" rx="0.5"/><rect x="304.5" y="11" width="10" height="8" rx="0.5"/>
      <rect x="319" y="11" width="10" height="8" rx="0.5"/><rect x="333.5" y="11" width="10" height="8" rx="0.5"/>
    </g>
    <g fill="#b8860b" opacity="0.4">
      <rect x="1.5" y="4.5" width="7" height="2" rx="0.3"/><rect x="30.5" y="4.5" width="7" height="2" rx="0.3"/>
      <rect x="175.5" y="4.5" width="7" height="2" rx="0.3"/><rect x="334.5" y="4.5" width="7" height="2" rx="0.3"/>
      <rect x="1.5" y="15.5" width="7" height="2" rx="0.3"/><rect x="218.5" y="15.5" width="7" height="2" rx="0.3"/>
      <rect x="334.5" y="15.5" width="7" height="2" rx="0.3"/>
    </g>
  </g>

  <g transform="translate(410, 13)">
    <rect width="16" height="18" rx="1" fill="#101014" stroke="#2a2a34" stroke-width="0.5"/>
    <text x="8" y="17" text-anchor="middle" fill="#555" font-family="Arial" font-size="3">USB</text>
  </g>
  <g transform="translate(428, 8)">
    <circle cx="0" cy="4" r="1.5" fill="#1bdb7a"/>
    <circle cx="0" cy="18" r="1.5" fill="#3b9eff"/>
    <circle cx="0" cy="32" r="1.5" fill="#1bdb7a"/>
  </g>
</svg>